<?xml version="1.0" encoding="utf-8"?>
<!-- Generator: Adobe Illustrator 25.0.0, SVG Export Plug-In . SVG Version: 6.00 Build 0)  -->
<svg version="1.1" id="Layer_1" xmlns="http://www.w3.org/2000/svg" xmlns:xlink="http://www.w3.org/1999/xlink" x="0px" y="0px"
	 viewBox="0 0 32 32" style="enable-background:new 0 0 32 32;" xml:space="preserve">
<style type="text/css">
	.st0{fill:#484848;}
</style>
<path class="st0" d="M29.6,14.2L18.3,5c-0.3-0.2-0.6-0.3-0.9-0.1c-0.3,0.1-0.5,0.4-0.5,0.8l0,4.9c-5,0.2-9,1.8-11.5,4.8
	c-4.1,4.8-3.2,11.8-3.2,12.1c0.1,0.4,0.4,0.7,0.8,0.7h0c0.4,0,0.7-0.4,0.8-0.8c0-0.3,0.9-8.1,13.1-8.1l0,5c0,0.3,0.2,0.6,0.5,0.8
	c0.3,0.1,0.7,0.1,0.9-0.1l11.3-9.3c0.2-0.2,0.3-0.4,0.3-0.7C29.9,14.6,29.8,14.4,29.6,14.2z M18.6,22.4v-4c0-0.2-0.1-0.5-0.3-0.6
	c-0.2-0.2-0.4-0.3-0.6-0.3c-8.7,0-12,2.9-13.9,5.5c0.3-2.1,1.1-4.6,2.9-6.6c2.3-2.7,6.1-4.1,11.1-4.1c0.5,0,0.9-0.4,0.9-0.9V7.5
	l9,7.4L18.6,22.4z"/>
<path class="st0" d="M18.6,22.4v-4c0-0.2-0.1-0.5-0.3-0.6c-0.2-0.2-0.4-0.3-0.6-0.3c-8.7,0-12,2.9-13.9,5.5c0.3-2.1,1.1-4.6,2.9-6.6
	c2.3-2.7,6.1-4.1,11.1-4.1c0.5,0,0.9-0.4,0.9-0.9V7.5l9,7.4L18.6,22.4z"/>
</svg>
