<svg xmlns="http://www.w3.org/2000/svg" data-name="Layer 1" viewBox="0 0 100 100" x="0px" y="0px"><title>78</title><g data-name="Group"><path data-name="Compound Path" d="M95.2,85.7V14.3H4.8V85.7Zm-88.5-2V37.1H93.2V83.7ZM93.2,16.3V35.1H6.8V16.3Z"/><path data-name="Compound Path" d="M18.2,31.5a5.8,5.8,0,1,0-5.8-5.8A5.8,5.8,0,0,0,18.2,31.5Zm0-9.6a3.8,3.8,0,1,1-3.8,3.8A3.8,3.8,0,0,1,18.2,21.9Z"/><path data-name="Compound Path" d="M30.6,31.5a5.8,5.8,0,1,0-5.8-5.8A5.8,5.8,0,0,0,30.6,31.5Zm0-9.6a3.8,3.8,0,1,1-3.8,3.8A3.8,3.8,0,0,1,30.6,21.9Z"/><path data-name="Compound Path" d="M43.6,31.5a5.8,5.8,0,1,0-5.8-5.8A5.8,5.8,0,0,0,43.6,31.5Zm0-9.6a3.8,3.8,0,1,1-3.8,3.8A3.8,3.8,0,0,1,43.6,21.9Z"/><polygon data-name="Path" points="28.3 48.6 38.8 60 28.3 71.4 29.8 72.8 41.5 60 29.8 47.2 28.3 48.6"/><rect data-name="Path" x="48.1" y="70.9" width="24.4" height="2"/></g></svg>