<svg xmlns="http://www.w3.org/2000/svg" xmlns:xlink="http://www.w3.org/1999/xlink" version="1.1" x="0px" y="0px" viewBox="0 0 30 30" style="enable-background:new 0 0 30 30;" xml:space="preserve"><g><g><path d="M26,10.7h-8.8c-0.6,0-1-0.4-1-1s0.4-1,1-1H26c0.6,0,1,0.4,1,1S26.6,10.7,26,10.7z"/></g><g><path d="M12.8,10.7H4c-0.6,0-1-0.4-1-1s0.4-1,1-1h8.8c0.6,0,1,0.4,1,1S13.4,10.7,12.8,10.7z"/></g><g><path d="M15.7,12.9h-1.4c-1.3,0-2.4-1-2.5-2.4c0-0.1,0-0.1,0-0.2V9c0-1.4,1.1-2.5,2.5-2.5h1.4c1.4,0,2.5,1.1,2.5,2.5v1.4    c0,0.1,0,0.1,0,0.2C18.1,11.8,17,12.9,15.7,12.9z M13.8,10.2c0,0,0,0.1,0,0.1c0,0.3,0.2,0.5,0.5,0.5h1.4c0.3,0,0.5-0.2,0.5-0.5    c0,0,0-0.1,0-0.1V9c0-0.3-0.2-0.5-0.5-0.5h-1.4c-0.3,0-0.5,0.2-0.5,0.5V10.2z M17.2,10.4L17.2,10.4L17.2,10.4z"/></g><g><path d="M23,19c-0.6,0-1-0.4-1-1c0-3.1-2-5.7-5.1-6.6c-0.5-0.2-0.8-0.7-0.7-1.2c0.2-0.5,0.7-0.8,1.2-0.7C21.4,10.6,24,14,24,18    C24,18.5,23.6,19,23,19z"/></g><g><path d="M6.9,19.1c-0.6,0-1-0.4-1-1c0-4,2.7-7.6,6.6-8.7c0.5-0.1,1.1,0.2,1.2,0.7s-0.2,1.1-0.7,1.2c-3,0.8-5.1,3.6-5.1,6.8    C7.9,18.7,7.5,19.1,6.9,19.1z"/></g><g><path d="M23,23.5c-1.8,0-3.2-1.5-3.2-3.2s1.5-3.2,3.2-3.2s3.2,1.5,3.2,3.2S24.8,23.5,23,23.5z M23,19.1c-0.7,0-1.2,0.6-1.2,1.2    s0.6,1.2,1.2,1.2s1.2-0.6,1.2-1.2S23.7,19.1,23,19.1z"/></g><g><path d="M9.1,23.5H4.8c-0.6,0-1-0.4-1-1v-4.3c0-0.6,0.4-1,1-1h4.3c0.6,0,1,0.4,1,1v4.3C10.1,23,9.6,23.5,9.1,23.5z M5.8,21.5h2.3    v-2.3H5.8V21.5z"/></g></g></svg>