<svg xmlns="http://www.w3.org/2000/svg" viewBox="0 0 83.25 44.33"><defs><style>.cls-1{fill:#231f20;}</style></defs><g id="Layer_2" data-name="Layer 2"><g id="Layer_1-2" data-name="Layer 1"><path class="cls-1" d="M42,44.33l-.25-.13L0,21.56,40.87,0l.24.13,42.14,22ZM2.19,21.58,42,43.16,81,22.17l-40.16-21Z"/><path class="cls-1" d="M23.21,15.77h3.2l3.8,6.44c.2.36.88,1.63.88,1.63h0s0-1.54,0-2V15.77H34.2V28.6H31l-3.77-6.36c-.21-.34-.91-1.72-.91-1.72h0s0,1.65,0,2.1v6H23.21Z"/><path class="cls-1" d="M36,22.23c0-3.83,2.5-6.72,6.32-6.72A6,6,0,0,1,46,16.64a5,5,0,0,1,1.92,3.54H44.7a2.32,2.32,0,0,0-2.43-2c-2.08,0-3.07,1.74-3.07,4.08s1.19,4.05,3.09,4.05a2.36,2.36,0,0,0,2.5-2.13H48a5,5,0,0,1-1.54,3.28,5.61,5.61,0,0,1-4.11,1.46c-3.77,0-6.34-2.82-6.34-6.66"/><path class="cls-1" d="M49.11,22.23c0-3.83,2.5-6.72,6.32-6.72a6,6,0,0,1,3.66,1.13A5.05,5.05,0,0,1,61,20.18H57.83a2.31,2.31,0,0,0-2.42-2c-2.08,0-3.07,1.74-3.07,4.08s1.19,4.05,3.09,4.05a2.35,2.35,0,0,0,2.49-2.13H61.1a5,5,0,0,1-1.54,3.28,5.61,5.61,0,0,1-4.11,1.46c-3.77,0-6.34-2.82-6.34-6.66"/></g></g></svg>