<svg xmlns="http://www.w3.org/2000/svg" viewBox="0 0 231.06 33.96"><defs><style>.cls-1{fill:#231f20;}</style></defs><title>text-logo-underline--blk_1</title><g id="Layer_2" data-name="Layer 2"><g id="Layer_1-2" data-name="Layer 1"><path class="cls-1" d="M.08,19.3V.62H2.6L14,13.08V.62h3.64V19.3H15.1L3.72,6.81V19.3Z"/><path class="cls-1" d="M31.38,7.17h3.41V19.3H31.38V17.73a4.35,4.35,0,0,1-3.73,2,6.15,6.15,0,0,1-6.19-6.47c0-3.58,2.44-6.44,6-6.44a4.4,4.4,0,0,1,3.9,2ZM25,13.22a3.36,3.36,0,1,0,6.72,0,3.36,3.36,0,1,0-6.72,0Z"/><path class="cls-1" d="M42.16,25.72H38.74V7.17h3.42V8.74a4.6,4.6,0,0,1,4-2A5.8,5.8,0,0,1,50.26,8.4a6.58,6.58,0,0,1,1.82,4.82,6.51,6.51,0,0,1-1.91,4.91,6,6,0,0,1-4.11,1.56,4.61,4.61,0,0,1-3.9-2ZM43,10.62a3.22,3.22,0,0,0-1.14,2.6A3.44,3.44,0,0,0,43,15.86a3.3,3.3,0,0,0,2.24.81,3.21,3.21,0,0,0,2.29-.87,3.55,3.55,0,0,0,1.07-2.58,3.64,3.64,0,0,0-1-2.55,3.54,3.54,0,0,0-2.32-.86A3.11,3.11,0,0,0,43,10.62Z"/><path class="cls-1" d="M64.71,7.17h3.42V19.3H64.71V17.73a4.32,4.32,0,0,1-3.72,2,6.15,6.15,0,0,1-6.19-6.47c0-3.58,2.43-6.44,6-6.44a4.39,4.39,0,0,1,3.89,2Zm-6.38,6.05a3.36,3.36,0,1,0,6.72,0,3.36,3.36,0,1,0-6.72,0Z"/><path class="cls-1" d="M93.37,18.63a9.64,9.64,0,0,1-4.62,1.09,9.2,9.2,0,0,1-6.83-2.6,9.32,9.32,0,0,1-3-7.15,9.76,9.76,0,0,1,3-7.31A9.56,9.56,0,0,1,88.78.2a9.4,9.4,0,0,1,4.59,1.14V5.6a6,6,0,0,0-4.51-2.1A6.25,6.25,0,0,0,82.67,10,6.19,6.19,0,0,0,89,16.42a5.65,5.65,0,0,0,4.37-2.05Z"/><path class="cls-1" d="M96.93,7.17h3.42V9a4.13,4.13,0,0,1,1.51-1.68,3.81,3.81,0,0,1,2-.53,4.26,4.26,0,0,1,1.46.28l-.45,3.19a2.64,2.64,0,0,0-1.6-.44,2.8,2.8,0,0,0-2.27,1,4.18,4.18,0,0,0-.67,2.69V19.3H96.93Z"/><path class="cls-1" d="M119,15.91a6,6,0,0,1-6,3.78,6.37,6.37,0,0,1-4.65-1.7,6.1,6.1,0,0,1-1.91-4.74,6.45,6.45,0,0,1,1.85-4.76,6.22,6.22,0,0,1,4.57-1.71,5.79,5.79,0,0,1,4.73,2,7.24,7.24,0,0,1,1.46,4.76v.28H110a3.63,3.63,0,0,0,.59,2A2.91,2.91,0,0,0,113.07,17a3.12,3.12,0,0,0,2.83-1.59Zm-3.14-4.28a2.91,2.91,0,0,0-5.75,0Z"/><path class="cls-1" d="M132,7.17h3.41V19.3H132V17.73a4.35,4.35,0,0,1-3.73,2,6.15,6.15,0,0,1-6.19-6.47c0-3.58,2.43-6.44,6-6.44a4.4,4.4,0,0,1,3.9,2Zm-6.39,6.05a3.36,3.36,0,1,0,6.72,0,3.36,3.36,0,1,0-6.72,0Z"/><path class="cls-1" d="M142.82,10.09V19.3H139.4V10.09h-1.34V7.17h1.34V3h3.42V7.17h2.35v2.92Z"/><path class="cls-1" d="M149.38,0a2,2,0,1,1-2,2A2,2,0,0,1,149.38,0Zm1.71,7.17V19.3h-3.42V7.17Z"/><path class="cls-1" d="M157.28,7.17,160.47,14l3.19-6.84h3.81l-6.1,12.13h-1.8l-6.1-12.13Z"/><path class="cls-1" d="M181.48,15.91a6,6,0,0,1-6,3.78,6.39,6.39,0,0,1-4.65-1.7,6.13,6.13,0,0,1-1.9-4.74,6.45,6.45,0,0,1,1.85-4.76,6.22,6.22,0,0,1,4.56-1.71,5.8,5.8,0,0,1,4.74,2,7.24,7.24,0,0,1,1.46,4.76v.28h-9.08a3.55,3.55,0,0,0,.59,2A2.88,2.88,0,0,0,175.51,17a3.12,3.12,0,0,0,2.83-1.59Zm-3.14-4.28a2.91,2.91,0,0,0-5.74,0Z"/><path class="cls-1" d="M206.19,18.63a9.64,9.64,0,0,1-4.62,1.09,9.24,9.24,0,0,1-6.84-2.6,9.35,9.35,0,0,1-3-7.15,9.8,9.8,0,0,1,3-7.31A9.6,9.6,0,0,1,201.6.2a9.43,9.43,0,0,1,4.59,1.14V5.6a6,6,0,0,0-4.51-2.1A6.25,6.25,0,0,0,195.49,10a6.19,6.19,0,0,0,6.33,6.39,5.65,5.65,0,0,0,4.37-2.05Z"/><path class="cls-1" d="M221,8.49A6.36,6.36,0,0,1,223,13.25,6.38,6.38,0,0,1,221,18a7.91,7.91,0,0,1-9.8,0,6.38,6.38,0,0,1-2.05-4.74,6.36,6.36,0,0,1,2.05-4.76,7.88,7.88,0,0,1,9.8,0Zm-1.48,4.76a3.42,3.42,0,1,0-3.42,3.42A3.39,3.39,0,0,0,219.5,13.25Z"/><path class="cls-1" d="M228.27,15.3a2.19,2.19,0,1,1-2.19,2.18A2.15,2.15,0,0,1,228.27,15.3Z"/><rect class="cls-1" y="31.44" width="231.06" height="2.52"/></g></g></svg>