<svg xmlns="http://www.w3.org/2000/svg" viewBox="0 0 27.29 7.27"><defs><style>.cls-1{fill:#484848;}</style></defs><g id="Layer_2" data-name="Layer 2"><g id="Layer_1-2" data-name="Layer 1"><g id="zZWMVo"><path class="cls-1" d="M3.65,0A3.64,3.64,0,1,1,0,3.59,3.64,3.64,0,0,1,3.65,0ZM6.06,3.65A2.43,2.43,0,1,0,3.64,6.06,2.44,2.44,0,0,0,6.06,3.65Z"/><path class="cls-1" d="M10,3.63a3.64,3.64,0,1,1,3.63,3.64A3.63,3.63,0,0,1,10,3.63Zm3.61,2.43a2.43,2.43,0,1,0-2.4-2.46A2.45,2.45,0,0,0,13.62,6.06Z"/><path class="cls-1" d="M23.64,7.27a3.64,3.64,0,1,1,3.65-3.66A3.64,3.64,0,0,1,23.64,7.27ZM21.23,3.62a2.43,2.43,0,1,0,2.45-2.41A2.43,2.43,0,0,0,21.23,3.62Z"/></g></g></g></svg>